<svg viewBox="0 0 200 200" xmlns="http://www.w3.org/2000/svg">
    <path fill="#9071BB"
        d="M42.4,-73.8C54.1,-66.7,62.1,-53.6,70.4,-40.3C78.7,-27,87.3,-13.5,86.4,-0.5C85.5,12.5,75.1,24.9,64.4,34C53.6,43,42.5,48.6,31.7,56.9C20.9,65.1,10.4,75.8,-2.5,80.2C-15.5,84.5,-30.9,82.4,-43.2,75.1C-55.5,67.7,-64.6,55.2,-69.9,41.8C-75.2,28.4,-76.5,14.2,-77,-0.3C-77.5,-14.8,-77.1,-29.5,-70.4,-40.4C-63.7,-51.3,-50.7,-58.2,-37.9,-64.6C-25.1,-71,-12.6,-76.9,1.4,-79.3C15.4,-81.7,30.7,-80.8,42.4,-73.8Z"
        transform="translate(100 100)" />
</svg>