<svg viewBox="0 0 200 200" xmlns="http://www.w3.org/2000/svg">
    <path fill="#9071BB"
        d="M35.3,-60.5C49.3,-53.1,66.7,-50.8,73.8,-41.6C80.9,-32.4,77.7,-16.2,73.5,-2.4C69.3,11.3,64,22.6,58.1,33.9C52.2,45.2,45.7,56.5,35.9,65.6C26.1,74.7,13.1,81.6,0.6,80.6C-11.9,79.6,-23.8,70.7,-35.7,62.8C-47.6,55,-59.6,48.1,-66.9,37.8C-74.3,27.5,-77,13.8,-79.3,-1.4C-81.7,-16.5,-83.6,-32.9,-75.6,-42.1C-67.6,-51.2,-49.6,-52.9,-35.3,-60.2C-21,-67.5,-10.5,-80.4,0.1,-80.5C10.6,-80.7,21.3,-68,35.3,-60.5Z"
        transform="translate(100 100)" />
</svg>