<svg viewBox="0 0 200 200" xmlns="http://www.w3.org/2000/svg">
    <path fill="#9071BB"
        d="M46.3,-79.2C60.7,-72,73.4,-60.9,77.9,-47C82.4,-33.1,78.8,-16.6,75.6,-1.8C72.4,12.9,69.6,25.7,63.1,36.1C56.6,46.5,46.2,54.3,35.1,59.6C23.9,64.8,12,67.5,-1.4,69.9C-14.8,72.4,-29.6,74.7,-39.5,68.7C-49.3,62.7,-54.2,48.4,-57.3,35.6C-60.3,22.8,-61.5,11.4,-62.7,-0.7C-63.9,-12.7,-65.1,-25.5,-60.1,-35.1C-55.2,-44.6,-44.1,-51,-33.1,-60C-22.1,-69.1,-11,-80.9,2.5,-85.2C16,-89.5,32,-86.3,46.3,-79.2Z"
        transform="translate(100 100)" />
</svg>