<svg viewBox="0 0 200 200" xmlns="http://www.w3.org/2000/svg">
    <path fill="#9071BB"
        d="M40.4,-74.2C50.3,-64.3,54.7,-49.2,63,-36C71.2,-22.8,83.3,-11.4,86.7,2C90.1,15.3,84.9,30.7,77,44.5C69.1,58.3,58.4,70.5,45.1,76.8C31.8,83.2,15.9,83.7,0.4,83C-15.1,82.3,-30.2,80.4,-41.6,73C-53,65.5,-60.7,52.5,-66.1,39.4C-71.6,26.3,-74.9,13.1,-74.6,0.2C-74.3,-12.8,-70.5,-25.7,-64,-36.9C-57.4,-48.2,-48.2,-57.8,-37.1,-67C-26,-76.2,-13,-84.9,1.1,-86.9C15.3,-88.9,30.5,-84.1,40.4,-74.2Z"
        transform="translate(100 100)" />
</svg>