<svg viewBox="0 0 200 200" xmlns="http://www.w3.org/2000/svg">
    <path fill="#9071BB"
        d="M30.6,-54.3C40.1,-47.5,48.5,-40.2,55.1,-31.1C61.8,-21.9,66.6,-11,70.7,2.4C74.8,15.7,78.2,31.4,72.4,42C66.6,52.6,51.6,58,38,62.9C24.5,67.7,12.2,71.9,-0.2,72.2C-12.5,72.5,-25.1,68.8,-36.7,62.9C-48.3,56.9,-59,48.6,-68.5,37.7C-78,26.8,-86.2,13.4,-84.3,1.1C-82.4,-11.2,-70.4,-22.5,-60,-31.7C-49.6,-41,-40.8,-48.2,-31.1,-54.9C-21.3,-61.7,-10.7,-67.9,-0.1,-67.7C10.5,-67.6,21.1,-61.2,30.6,-54.3Z"
        transform="translate(100 100)" />
</svg>