<svg viewBox="0 0 200 200" xmlns="http://www.w3.org/2000/svg">
    <path fill="#9071BB"
        d="M31.1,-54.6C41.2,-48.1,50.7,-41.5,60.8,-32.3C71,-23.2,81.7,-11.6,85.5,2.2C89.4,16.1,86.5,32.1,77.5,43.3C68.6,54.5,53.6,60.8,39.7,69C25.8,77.2,12.9,87.3,1.2,85.3C-10.6,83.3,-21.1,69.1,-35.5,61.2C-49.9,53.2,-68,51.5,-74.3,42.3C-80.5,33.2,-74.8,16.6,-71.3,2C-67.8,-12.6,-66.5,-25.1,-63.1,-39.1C-59.6,-53,-53.9,-68.3,-43.1,-74.3C-32.2,-80.3,-16.1,-77,-2.8,-72.2C10.5,-67.4,21.1,-61.1,31.1,-54.6Z"
        transform="translate(100 100)" />
</svg>